<mxfile host="app.diagrams.net" modified="2021-05-02T16:23:01.916Z" agent="5.0 (Macintosh; Intel Mac OS X 10_12_6) AppleWebKit/537.36 (KHTML, like Gecko) Chrome/90.0.4430.85 Safari/537.36" etag="Iq7d4RNvUoIO4vd5keqn" version="14.6.9" type="github">
  <diagram id="16izt74D8FVAE2Mxnmsq" name="Page-1">
    <mxGraphModel dx="1251" dy="681" grid="1" gridSize="10" guides="1" tooltips="1" connect="1" arrows="1" fold="1" page="1" pageScale="1" pageWidth="850" pageHeight="1100" math="0" shadow="0">
      <root>
        <mxCell id="0" />
        <mxCell id="1" parent="0" />
        <mxCell id="p9VevVhBph6_BjDWxgDE-7" style="edgeStyle=orthogonalEdgeStyle;rounded=0;orthogonalLoop=1;jettySize=auto;html=1;" edge="1" parent="1" source="p9VevVhBph6_BjDWxgDE-1" target="p9VevVhBph6_BjDWxgDE-6">
          <mxGeometry relative="1" as="geometry" />
        </mxCell>
        <mxCell id="p9VevVhBph6_BjDWxgDE-1" value="Raspberry Pi 4 model B" style="whiteSpace=wrap;html=1;aspect=fixed;" vertex="1" parent="1">
          <mxGeometry x="260" y="100" width="80" height="80" as="geometry" />
        </mxCell>
        <mxCell id="p9VevVhBph6_BjDWxgDE-5" style="edgeStyle=orthogonalEdgeStyle;rounded=0;orthogonalLoop=1;jettySize=auto;html=1;entryX=0;entryY=0.5;entryDx=0;entryDy=0;" edge="1" parent="1" source="p9VevVhBph6_BjDWxgDE-2" target="p9VevVhBph6_BjDWxgDE-1">
          <mxGeometry relative="1" as="geometry" />
        </mxCell>
        <mxCell id="p9VevVhBph6_BjDWxgDE-2" value="DHT22 Sensor" style="rounded=1;whiteSpace=wrap;html=1;" vertex="1" parent="1">
          <mxGeometry x="40" y="50" width="150" height="180" as="geometry" />
        </mxCell>
        <mxCell id="p9VevVhBph6_BjDWxgDE-3" value="Temperature" style="rounded=1;whiteSpace=wrap;html=1;" vertex="1" parent="1">
          <mxGeometry x="70" y="170" width="80" height="20" as="geometry" />
        </mxCell>
        <mxCell id="p9VevVhBph6_BjDWxgDE-4" value="Humidity" style="rounded=1;whiteSpace=wrap;html=1;" vertex="1" parent="1">
          <mxGeometry x="70" y="200" width="80" height="20" as="geometry" />
        </mxCell>
        <mxCell id="p9VevVhBph6_BjDWxgDE-8" style="edgeStyle=orthogonalEdgeStyle;rounded=0;orthogonalLoop=1;jettySize=auto;html=1;" edge="1" parent="1" source="p9VevVhBph6_BjDWxgDE-6" target="p9VevVhBph6_BjDWxgDE-9">
          <mxGeometry relative="1" as="geometry">
            <mxPoint x="460" y="240" as="targetPoint" />
          </mxGeometry>
        </mxCell>
        <mxCell id="p9VevVhBph6_BjDWxgDE-12" style="edgeStyle=orthogonalEdgeStyle;rounded=0;orthogonalLoop=1;jettySize=auto;html=1;entryX=0.027;entryY=0.614;entryDx=0;entryDy=0;entryPerimeter=0;" edge="1" parent="1" source="p9VevVhBph6_BjDWxgDE-6" target="p9VevVhBph6_BjDWxgDE-11">
          <mxGeometry relative="1" as="geometry" />
        </mxCell>
        <mxCell id="p9VevVhBph6_BjDWxgDE-6" value="Flask App server" style="ellipse;whiteSpace=wrap;html=1;" vertex="1" parent="1">
          <mxGeometry x="400" y="90" width="120" height="80" as="geometry" />
        </mxCell>
        <mxCell id="p9VevVhBph6_BjDWxgDE-9" value="Sqlite Database&lt;br&gt;&lt;br&gt;" style="ellipse;whiteSpace=wrap;html=1;" vertex="1" parent="1">
          <mxGeometry x="400" y="200" width="120" height="80" as="geometry" />
        </mxCell>
        <mxCell id="p9VevVhBph6_BjDWxgDE-10" value="Sensor data" style="rounded=1;whiteSpace=wrap;html=1;" vertex="1" parent="1">
          <mxGeometry x="425" y="240" width="70" height="30" as="geometry" />
        </mxCell>
        <mxCell id="p9VevVhBph6_BjDWxgDE-11" value="Weather Prediction" style="ellipse;whiteSpace=wrap;html=1;" vertex="1" parent="1">
          <mxGeometry x="540" y="80" width="120" height="80" as="geometry" />
        </mxCell>
        <mxCell id="p9VevVhBph6_BjDWxgDE-13" value="" style="strokeWidth=1;shadow=0;dashed=0;align=center;html=1;shape=mxgraph.mockup.containers.browserWindow;rSize=0;strokeColor=#666666;strokeColor2=#008cff;strokeColor3=#c4c4c4;mainText=,;recursiveResize=0;" vertex="1" parent="1">
          <mxGeometry x="580" y="186" width="330" height="280" as="geometry" />
        </mxCell>
        <mxCell id="p9VevVhBph6_BjDWxgDE-14" value="System UI" style="strokeWidth=1;shadow=0;dashed=0;align=center;html=1;shape=mxgraph.mockup.containers.anchor;fontSize=17;fontColor=#666666;align=left;" vertex="1" parent="p9VevVhBph6_BjDWxgDE-13">
          <mxGeometry x="60" y="12" width="110" height="26" as="geometry" />
        </mxCell>
        <mxCell id="p9VevVhBph6_BjDWxgDE-15" value="https://www.draw.io" style="strokeWidth=1;shadow=0;dashed=0;align=center;html=1;shape=mxgraph.mockup.containers.anchor;rSize=0;fontSize=17;fontColor=#666666;align=left;" vertex="1" parent="p9VevVhBph6_BjDWxgDE-13">
          <mxGeometry x="130" y="60" width="250" height="26" as="geometry" />
        </mxCell>
        <mxCell id="p9VevVhBph6_BjDWxgDE-16" value="" style="aspect=fixed;pointerEvents=1;shadow=0;dashed=0;html=1;strokeColor=none;labelPosition=center;verticalLabelPosition=bottom;verticalAlign=top;align=center;fillColor=#00188D;shape=mxgraph.mscae.general.graph" vertex="1" parent="p9VevVhBph6_BjDWxgDE-13">
          <mxGeometry x="86" y="218" width="50" height="50" as="geometry" />
        </mxCell>
        <mxCell id="p9VevVhBph6_BjDWxgDE-17" value="" style="aspect=fixed;pointerEvents=1;shadow=0;dashed=0;html=1;strokeColor=none;labelPosition=center;verticalLabelPosition=bottom;verticalAlign=top;align=center;fillColor=#00188D;shape=mxgraph.mscae.general.graph" vertex="1" parent="p9VevVhBph6_BjDWxgDE-13">
          <mxGeometry x="196" y="218" width="50" height="50" as="geometry" />
        </mxCell>
        <mxCell id="p9VevVhBph6_BjDWxgDE-19" value="Table" style="shape=table;html=1;whiteSpace=wrap;startSize=30;container=1;collapsible=0;childLayout=tableLayout;fontStyle=1;align=center;" vertex="1" parent="p9VevVhBph6_BjDWxgDE-13">
          <mxGeometry x="80" y="120" width="170" height="80" as="geometry" />
        </mxCell>
        <mxCell id="p9VevVhBph6_BjDWxgDE-20" value="" style="shape=partialRectangle;html=1;whiteSpace=wrap;collapsible=0;dropTarget=0;pointerEvents=0;fillColor=none;top=0;left=0;bottom=0;right=0;points=[[0,0.5],[1,0.5]];portConstraint=eastwest;" vertex="1" parent="p9VevVhBph6_BjDWxgDE-19">
          <mxGeometry y="30" width="170" height="18" as="geometry" />
        </mxCell>
        <mxCell id="p9VevVhBph6_BjDWxgDE-21" value="" style="shape=partialRectangle;html=1;whiteSpace=wrap;connectable=0;fillColor=none;top=0;left=0;bottom=0;right=0;overflow=hidden;" vertex="1" parent="p9VevVhBph6_BjDWxgDE-20">
          <mxGeometry width="57" height="18" as="geometry" />
        </mxCell>
        <mxCell id="p9VevVhBph6_BjDWxgDE-22" value="" style="shape=partialRectangle;html=1;whiteSpace=wrap;connectable=0;fillColor=none;top=0;left=0;bottom=0;right=0;overflow=hidden;" vertex="1" parent="p9VevVhBph6_BjDWxgDE-20">
          <mxGeometry x="57" width="56" height="18" as="geometry" />
        </mxCell>
        <mxCell id="p9VevVhBph6_BjDWxgDE-23" value="" style="shape=partialRectangle;html=1;whiteSpace=wrap;connectable=0;fillColor=none;top=0;left=0;bottom=0;right=0;overflow=hidden;" vertex="1" parent="p9VevVhBph6_BjDWxgDE-20">
          <mxGeometry x="113" width="57" height="18" as="geometry" />
        </mxCell>
        <mxCell id="p9VevVhBph6_BjDWxgDE-24" value="" style="shape=partialRectangle;html=1;whiteSpace=wrap;collapsible=0;dropTarget=0;pointerEvents=0;fillColor=none;top=0;left=0;bottom=0;right=0;points=[[0,0.5],[1,0.5]];portConstraint=eastwest;" vertex="1" parent="p9VevVhBph6_BjDWxgDE-19">
          <mxGeometry y="48" width="170" height="15" as="geometry" />
        </mxCell>
        <mxCell id="p9VevVhBph6_BjDWxgDE-25" value="" style="shape=partialRectangle;html=1;whiteSpace=wrap;connectable=0;fillColor=none;top=0;left=0;bottom=0;right=0;overflow=hidden;" vertex="1" parent="p9VevVhBph6_BjDWxgDE-24">
          <mxGeometry width="57" height="15" as="geometry" />
        </mxCell>
        <mxCell id="p9VevVhBph6_BjDWxgDE-26" value="" style="shape=partialRectangle;html=1;whiteSpace=wrap;connectable=0;fillColor=none;top=0;left=0;bottom=0;right=0;overflow=hidden;" vertex="1" parent="p9VevVhBph6_BjDWxgDE-24">
          <mxGeometry x="57" width="56" height="15" as="geometry" />
        </mxCell>
        <mxCell id="p9VevVhBph6_BjDWxgDE-27" value="" style="shape=partialRectangle;html=1;whiteSpace=wrap;connectable=0;fillColor=none;top=0;left=0;bottom=0;right=0;overflow=hidden;" vertex="1" parent="p9VevVhBph6_BjDWxgDE-24">
          <mxGeometry x="113" width="57" height="15" as="geometry" />
        </mxCell>
        <mxCell id="p9VevVhBph6_BjDWxgDE-28" value="" style="shape=partialRectangle;html=1;whiteSpace=wrap;collapsible=0;dropTarget=0;pointerEvents=0;fillColor=none;top=0;left=0;bottom=0;right=0;points=[[0,0.5],[1,0.5]];portConstraint=eastwest;" vertex="1" parent="p9VevVhBph6_BjDWxgDE-19">
          <mxGeometry y="63" width="170" height="17" as="geometry" />
        </mxCell>
        <mxCell id="p9VevVhBph6_BjDWxgDE-29" value="" style="shape=partialRectangle;html=1;whiteSpace=wrap;connectable=0;fillColor=none;top=0;left=0;bottom=0;right=0;overflow=hidden;" vertex="1" parent="p9VevVhBph6_BjDWxgDE-28">
          <mxGeometry width="57" height="17" as="geometry" />
        </mxCell>
        <mxCell id="p9VevVhBph6_BjDWxgDE-30" value="" style="shape=partialRectangle;html=1;whiteSpace=wrap;connectable=0;fillColor=none;top=0;left=0;bottom=0;right=0;overflow=hidden;" vertex="1" parent="p9VevVhBph6_BjDWxgDE-28">
          <mxGeometry x="57" width="56" height="17" as="geometry" />
        </mxCell>
        <mxCell id="p9VevVhBph6_BjDWxgDE-31" value="" style="shape=partialRectangle;html=1;whiteSpace=wrap;connectable=0;fillColor=none;top=0;left=0;bottom=0;right=0;overflow=hidden;" vertex="1" parent="p9VevVhBph6_BjDWxgDE-28">
          <mxGeometry x="113" width="57" height="17" as="geometry" />
        </mxCell>
        <mxCell id="p9VevVhBph6_BjDWxgDE-32" value="" style="endArrow=classic;html=1;exitX=1;exitY=1;exitDx=0;exitDy=0;entryX=-0.015;entryY=0.071;entryDx=0;entryDy=0;entryPerimeter=0;" edge="1" parent="1" source="p9VevVhBph6_BjDWxgDE-6" target="p9VevVhBph6_BjDWxgDE-13">
          <mxGeometry width="50" height="50" relative="1" as="geometry">
            <mxPoint x="710" y="250" as="sourcePoint" />
            <mxPoint x="760" y="200" as="targetPoint" />
          </mxGeometry>
        </mxCell>
        <mxCell id="p9VevVhBph6_BjDWxgDE-33" value="" style="endArrow=classic;html=1;entryX=0.176;entryY=-0.007;entryDx=0;entryDy=0;entryPerimeter=0;" edge="1" parent="1" source="p9VevVhBph6_BjDWxgDE-11" target="p9VevVhBph6_BjDWxgDE-13">
          <mxGeometry width="50" height="50" relative="1" as="geometry">
            <mxPoint x="710" y="250" as="sourcePoint" />
            <mxPoint x="760" y="200" as="targetPoint" />
          </mxGeometry>
        </mxCell>
        <mxCell id="p9VevVhBph6_BjDWxgDE-34" value="" style="verticalLabelPosition=bottom;aspect=fixed;html=1;verticalAlign=top;strokeColor=#000000;fillColor=#000000;align=center;outlineConnect=0;shape=mxgraph.fluid_power.x11250;points=[[0.567,0,0],[0.567,1,0],[0.95,1,0]]" vertex="1" parent="1">
          <mxGeometry x="740" y="60" width="97.7" height="93.94" as="geometry" />
        </mxCell>
        <mxCell id="p9VevVhBph6_BjDWxgDE-35" value="Servo Motor" style="text;html=1;align=center;verticalAlign=middle;resizable=0;points=[];autosize=1;strokeColor=none;" vertex="1" parent="1">
          <mxGeometry x="757.7" y="50" width="80" height="20" as="geometry" />
        </mxCell>
        <mxCell id="p9VevVhBph6_BjDWxgDE-36" value="" style="endArrow=classic;html=1;exitX=1;exitY=0.5;exitDx=0;exitDy=0;" edge="1" parent="1" source="p9VevVhBph6_BjDWxgDE-11" target="p9VevVhBph6_BjDWxgDE-34">
          <mxGeometry width="50" height="50" relative="1" as="geometry">
            <mxPoint x="580" y="320" as="sourcePoint" />
            <mxPoint x="630" y="270" as="targetPoint" />
          </mxGeometry>
        </mxCell>
      </root>
    </mxGraphModel>
  </diagram>
</mxfile>
